<svg width="20" height="20" viewBox="0 0 20 20" fill="none" xmlns="http://www.w3.org/2000/svg">
<path d="M19.9999 10.2244C19.9999 9.53401 19.9431 8.86592 19.8336 8.21973H10.2045V11.995H15.8272C15.5891 13.253 14.9144 14.3413 13.9183 15.0216V17.5511H17.2917C19.049 15.9328 19.9999 13.313 19.9999 10.2244Z" fill="#4285F4"/>
<path d="M10.2045 20C13.0275 20 15.3999 19.034 17.2917 17.5511L13.9183 15.0216C13.0076 15.6599 11.721 16.0714 10.2045 16.0714C7.30067 16.0714 4.83277 14.1555 3.93005 11.6041H0.428467V14.2255C2.25995 17.653 5.92723 20 10.2045 20Z" fill="#34A853"/>
<path d="M3.93002 11.6041C3.74358 11.0428 3.63633 10.4387 3.63633 9.81818C3.63633 9.19773 3.74358 8.59364 3.92349 8.03227V5.41091H0.428436C-0.142857 6.64 -0.428571 8.16 -0.428571 9.81818C-0.428571 11.4764 -0.142857 12.9964 0.428436 14.2255L3.93002 11.6041Z" fill="#FBBC05"/>
<path d="M10.2045 3.92857C11.571 3.92857 12.8251 4.41727 13.7887 5.33182L17.3601 1.95682C15.3932 0.744545 12.9436 0 10.2045 0C5.92723 0 2.25995 2.34705 0.428467 5.41091L3.92349 8.03227C4.83277 5.84455 7.30067 3.92857 10.2045 3.92857Z" fill="#EA4335"/>
</svg>
